<svg version="1.0" xmlns="http://www.w3.org/2000/svg" width="933.333" height="933.333" viewBox="0 0 700 700"><path d="M404 208.5c-1.9.8-4.7 1.6-6.2 1.9-6.5 1.4-23.1 20.8-31.2 36.6-7.1 13.8-15.6 43-17.1 58.5-.6 6.1-4.2 26.5-4.9 27.2-.1.1-2.4-.9-5.1-2.3-7.6-3.9-14.6-2.2-22.1 5.3-10.5 10.5-11.5 27.8-2 34.6 4.4 3.1 14.8 3.1 19.1 0l3-2.1 2.8 2.4c3.2 2.8 6.9 3.1 9.1.8 1.7-1.7 1.8-2 2.1-10.4.1-3 1.2-9.8 2.4-15 4.2-18.2 6.1-28.6 7.2-38.5 1.5-15.3 3.9-26.3 10.1-47.5 2.2-7.7 11.7-25.9 16.9-32.2 3-3.7 7.9-8.5 10.9-10.7 3-2.2 6.2-4.7 7.2-5.5.9-.8 2.6-1.7 3.8-2.1 1.8-.6 2-.9.9-1.6-1.8-1.1-2.6-1-6.9.6zM339.2 342c2.5 2.6 2.9 3.6 2.4 6.3-1.1 5.4-4.4 11.2-7.5 13-6.9 4-12.1.9-12.1-7.3 0-12.3 10-19.2 17.2-12zm156.7-27.3c-1.8 4.8-1.5 6.6 1.4 8.2 2.4 1.4 3 1.4 5.4.1 2.9-1.6 5-6.7 4-9.4-.5-1.1-2-1.6-5.2-1.6-4 0-4.7.3-5.6 2.7zm-338.6.9c-1.6 2.4-4.2 13.4-10.4 43.4l-2.1 10.4 2.3 1.9c1.5 1.2 3.1 1.6 4.8 1.2 3.8-.9 4.9-2.5 6.1-8 3.4-17.4 4.8-23 5.6-23 1.2 0 2.9 3.9 5.6 12.5 2.1 6.8 2.6 7.5 5.1 7.8 3.3.4 6.9-3.1 13.3-12.9 2.3-3.6 5-7.2 6-8 1.6-1.3 1.7-1.1 1.1 3.1-.3 2.5-1.5 8.7-2.6 13.9-2.7 12-2.6 12.9.4 14.3 3.3 1.5 8-.5 9.3-4 2-5.4 10.4-47.8 10-50.7-.3-2.8-.6-3-4.6-3.3-2.6-.2-5.3.3-6.6 1.1-1.2.8-6.2 7.4-11.1 14.6-4.9 7.2-9.5 13.1-10.2 13.1-1.7 0-2.7-2.3-5.9-14.5-3-11.6-5.8-15.5-11.1-15.5-2.4 0-3.7.7-5 2.6zm113 13.4c-2.6 1-2.9 2.1-7.4 24.3-3.3 16.5-3.3 16.9-1.4 18.3 4.8 3.6 9.7-.3 11.5-9.2 3.3-16.7 6.7-22.4 13.3-22.4 5.5 0 6 1.5 4.2 11.7-.8 4.8-2 10.6-2.5 12.8-1.4 5.8-1.3 6.4 1.5 7.7 3.3 1.5 8-.5 9.4-4 1.9-4.8 5.6-23.5 5.6-28.7 0-3.2-.7-6-1.9-7.8-1.7-2.5-2.4-2.7-8.2-2.7-4.7 0-7.7.6-11.4 2.4-3.7 1.8-5 2.1-5 1.1 0-1.3-3.7-4.6-5-4.4-.3 0-1.5.4-2.7.9zm195.4.4c-2.6.7-5.5 2-6.5 2.9-2.6 2.4-4.7 2.1-7-.8-1.7-2.2-2.8-2.5-8.1-2.5-3.8 0-7.4.6-9.3 1.6-2.9 1.5-3.4 1.5-5.9 0-3.7-2.2-8.6-2.1-9.8.2-1.1 2.1-5.4 20.8-7.2 31.4-1.4 8.5-.6 10.8 3.6 10.8 4.5 0 7.1-3.4 8.3-10.8 2.6-15.7 6.9-22.7 13.6-22 2.9.3 3.1.6 3.4 4.9.2 2.5-.6 8.7-1.8 13.8-1.1 5.1-1.8 10.2-1.5 11.2.7 2.2 5.7 3.4 8.4 1.9 2.1-1.1 3.3-4.4 5.8-16.5 2.3-11.3 6.7-16.3 13.4-15.3 3.3.4 3.6 4.7 1 15.7-2.9 12.1-2.8 14.8.5 16.3 3.8 1.8 7.6-.6 9-5.7 2.6-9.1 4.6-20 4.7-26 .2-5.7-.1-6.7-2.3-8.9-3.3-3.1-6.5-3.7-12.3-2.2zM228 330.7c-5.3 2.7-11.6 9.7-13.4 15-5 14.7 1.1 26.1 14.4 27.1 10.4.8 19.1-4 24.6-13.4 5.4-9.1 3.9-22.7-2.8-27.6-4.4-3-17.7-3.7-22.8-1.1zm12.5 9.3c8.9 3.4 3.3 21.3-7.1 22.7-3.6.5-4.3.2-6.2-2.2-4.4-5.6-1.4-17.2 5.1-20 3.9-1.7 4.8-1.8 8.2-.5zm131.3-7.7c-7.2 5.5-11 14.1-11 25 0 13.7 11.6 19.6 25.3 12.9l4.2-2.1 1.9 2.5c2.5 3.1 7.1 3.2 9.2.2 1-1.4 1.6-4.4 1.6-8 0-3.2.9-9.8 1.9-14.6 1.1-4.8 2.1-11 2.3-13.7l.3-5-3.9-.3c-2.8-.2-4.7.3-6.8 1.8l-2.9 2.1-2.6-2c-2-1.6-4-2.1-8.9-2.1-5.5 0-6.7.4-10.6 3.3zm18.7 9.2c1.4 1.3 2.5 3.4 2.5 4.6 0 8-6.6 16.9-12.6 16.9-2.8 0-3.8-.6-5.4-3.3-4.1-6.6-1.4-16.3 5.3-19.2 4.7-2.1 7.5-1.8 10.2 1zm102.5-11c-.7.8-2.1 5.5-3.1 10.3-6.6 30.6-6.6 30.5-2.7 31.8 2.9.9 7.5-1.4 8.6-4.4.5-1.5 2-7.7 3.2-13.7 1.2-6.1 2.9-13.6 3.7-16.9.8-3.2 1.2-6.5.9-7.2-.8-2-9-1.9-10.6.1zm20.5.8c-.8 1.3-3.2 10.5-5.2 20.6-3.6 17.9-3.7 18.4-1.8 19.7 4.8 3.5 9.9-.2 11.4-8.4 1.7-8.8 4.1-16.4 6.3-19.4 2.2-3.2 8.4-5.3 10.5-3.6 1.9 1.6 1.6 11-.7 20.6-2.5 10.2-2.5 9.9.1 11.2 3.2 1.7 7.7.3 9.4-3.1 2.9-5.6 7.2-29 6.1-33.4-1.5-6-12.2-8.4-20.7-4.6-4.3 1.9-4.3 1.9-5.7 0-1.9-2.8-7.7-2.6-9.7.4zM210.1 516c76.4 76.5 139.4 139 139.9 139 .6 0 1-.5 1-1 0-.6-.4-1-1-1-.5 0-63-62.1-138.9-138S72.6 377 72.1 377c-.6 0 61.5 62.5 138 139zm347.6-69.9c-37.9 37.9-68.7 69.4-68.5 70 .2.5 31.8-30.6 70.2-69.1 38.5-38.5 69.3-70 68.5-69.9-.8 0-32.4 31.1-70.2 69zm-71.7 72c0 .5.5.7 1 .4.6-.3 1-.8 1-1.1 0-.2-.4-.4-1-.4-.5 0-1 .5-1 1.1zm-4 4c0 .5.5.7 1 .4.6-.3 1-.8 1-1.1 0-.2-.4-.4-1-.4-.5 0-1 .5-1 1.1zm-3 3c0 .5.5.7 1 .4.6-.3 1-.8 1-1.1 0-.2-.4-.4-1-.4-.5 0-1 .5-1 1.1zm-4 4c0 .5.5.7 1 .4.6-.3 1-.8 1-1.1 0-.2-.4-.4-1-.4-.5 0-1 .5-1 1.1zm-3 3c0 .5.5.7 1 .4.6-.3 1-.8 1-1.1 0-.2-.4-.4-1-.4-.5 0-1 .5-1 1.1zm-4 4c0 .5.5.7 1 .4.6-.3 1-.8 1-1.1 0-.2-.4-.4-1-.4-.5 0-1 .5-1 1.1zm-3 3c0 .5.5.7 1 .4.6-.3 1-.8 1-1.1 0-.2-.4-.4-1-.4-.5 0-1 .5-1 1.1zm-4 4c0 .5.5.7 1 .4.6-.3 1-.8 1-1.1 0-.2-.4-.4-1-.4-.5 0-1 .5-1 1.1zm-3 3c0 .5.5.7 1 .4.6-.3 1-.8 1-1.1 0-.2-.4-.4-1-.4-.5 0-1 .5-1 1.1zm-4 4c0 .5.5.7 1 .4.6-.3 1-.8 1-1.1 0-.2-.4-.4-1-.4-.5 0-1 .5-1 1.1zm-3 3c0 .5.5.7 1 .4.6-.3 1-.8 1-1.1 0-.2-.4-.4-1-.4-.5 0-1 .5-1 1.1zm-4 4c0 .5.5.7 1 .4.6-.3 1-.8 1-1.1 0-.2-.4-.4-1-.4-.5 0-1 .5-1 1.1zm-3 3c0 .5.5.7 1 .4.6-.3 1-.8 1-1.1 0-.2-.4-.4-1-.4-.5 0-1 .5-1 1.1zm-4 4c0 .5.5.7 1 .4.6-.3 1-.8 1-1.1 0-.2-.4-.4-1-.4-.5 0-1 .5-1 1.1zm-3 3c0 .5.5.7 1 .4.6-.3 1-.8 1-1.1 0-.2-.4-.4-1-.4-.5 0-1 .5-1 1.1zm-4 4c0 .5.5.7 1 .4.6-.3 1-.8 1-1.1 0-.2-.4-.4-1-.4-.5 0-1 .5-1 1.1zm-3 3c0 .5.5.7 1 .4.6-.3 1-.8 1-1.1 0-.2-.4-.4-1-.4-.5 0-1 .5-1 1.1zm-4 4c0 .5.5.7 1 .4.6-.3 1-.8 1-1.1 0-.2-.4-.4-1-.4-.5 0-1 .5-1 1.1zm-3 3c0 .5.5.7 1 .4.6-.3 1-.8 1-1.1 0-.2-.4-.4-1-.4-.5 0-1 .5-1 1.1zm-4 4c0 .5.5.7 1 .4.6-.3 1-.8 1-1.1 0-.2-.4-.4-1-.4-.5 0-1 .5-1 1.1zm-3 3c0 .5.5.7 1 .4.6-.3 1-.8 1-1.1 0-.2-.4-.4-1-.4-.5 0-1 .5-1 1.1zm-4 4c0 .5.5.7 1 .4.6-.3 1-.8 1-1.1 0-.2-.4-.4-1-.4-.5 0-1 .5-1 1.1zm-3 3c0 .5.5.7 1 .4.6-.3 1-.8 1-1.1 0-.2-.4-.4-1-.4-.5 0-1 .5-1 1.1zm-4 4c0 .5.5.7 1 .4.6-.3 1-.8 1-1.1 0-.2-.4-.4-1-.4-.5 0-1 .5-1 1.1zm-3 3c0 .5.5.7 1 .4.6-.3 1-.8 1-1.1 0-.2-.4-.4-1-.4-.5 0-1 .5-1 1.1zm-4 4c0 .5.5.7 1 .4.6-.3 1-.8 1-1.1 0-.2-.4-.4-1-.4-.5 0-1 .5-1 1.1zm-3 3c0 .5.5.7 1 .4.6-.3 1-.8 1-1.1 0-.2-.4-.4-1-.4-.5 0-1 .5-1 1.1zm-4 4c0 .5.5.7 1 .4.6-.3 1-.8 1-1.1 0-.2-.4-.4-1-.4-.5 0-1 .5-1 1.1zm-3 3c0 .5.5.7 1 .4.6-.3 1-.8 1-1.1 0-.2-.4-.4-1-.4-.5 0-1 .5-1 1.1zm-4 4c0 .5.5.7 1 .4.6-.3 1-.8 1-1.1 0-.2-.4-.4-1-.4-.5 0-1 .5-1 1.1zm-3 3c0 .5.5.7 1 .4.6-.3 1-.8 1-1.1 0-.2-.4-.4-1-.4-.5 0-1 .5-1 1.1zm-4 4c0 .5.5.7 1 .4.6-.3 1-.8 1-1.1 0-.2-.4-.4-1-.4-.5 0-1 .5-1 1.1zm-3 3c0 .5.5.7 1 .4.6-.3 1-.8 1-1.1 0-.2-.4-.4-1-.4-.5 0-1 .5-1 1.1zm-4 4c0 .5.5.7 1 .4.6-.3 1-.8 1-1.1 0-.2-.4-.4-1-.4-.5 0-1 .5-1 1.1zm-3 3c0 .5.5.7 1 .4.6-.3 1-.8 1-1.1 0-.2-.4-.4-1-.4-.5 0-1 .5-1 1.1zm-4 4c0 .5.5.7 1 .4.6-.3 1-.8 1-1.1 0-.2-.4-.4-1-.4-.5 0-1 .5-1 1.1zm-3 3c0 .5.5.7 1 .4.6-.3 1-.8 1-1.1 0-.2-.4-.4-1-.4-.5 0-1 .5-1 1.1zm-4 4c0 .5.5.7 1 .4.6-.3 1-.8 1-1.1 0-.2-.4-.4-1-.4-.5 0-1 .5-1 1.1zm-3 3c0 .5.5.7 1 .4.6-.3 1-.8 1-1.1 0-.2-.4-.4-1-.4-.5 0-1 .5-1 1.1z"/></svg>